# xmcd
# 
# Track frame offsets:
#     150
#     10056
#     25056
#     37683
#     51128
#     61705
#     76030
#     89319
#     107319
#     118532
#     130620
#     144262
#     154887
#     166763
#     180117
#     188727
#     199502
#     213140
#     226707
# 
# Disc length: 3184
# 
# Revision: 1
# Processed by: cddbd v1.5.2PL0 Copyright (c) Steve Scherf et al.
# Submitted via: fre:ac v1.0.17
# 
DISCID=c70c6e13
DTITLE=Various Artist - The Ultimate Blues Collection [CD1]
DYEAR=1997
DGENRE=Blues
TTITLE0=John Lee Hooker - Dimples
TTITLE1=Robert Cray - The Welfare (Turns It's Back On You)
TTITLE2=Jimmy Reed - You've got Me Dizzy
TTITLE3=Lightnin' Hopkins - Rolling And Rolling
TTITLE4=Arthur "Big Boy" Crudup - My Mama Don't Allow Me
TTITLE5=Elmore James - Dust My Blues
TTITLE6=Eddie Taylor -  Big Town Playboy
TTITLE7=Lowell Fulson - I'm Sinking
TTITLE8=Frank Frost - Gonna Make You Mine
TTITLE9=Memphis Slim - Wish Me Well
TTITLE10=Lightnin' Hopkins - Mojo Hand
TTITLE11=Billy Gayles - I'm Tore Up
TTITLE12=Floyd Dixon - That's All I Care
TTITLE13=Little George Smith - Blues In The Dark
TTITLE14=Guitar Junior - Knocks Me Out Fine, Fine, Fine
TTITLE15=Bobby Bland - Good Lovin'
TTITLE16=BB King - You Upset Me Baby
TTITLE17=Little George Smith - Telephone Blues
TTITLE18=T. Bone Walker - I Know Your Wig Has Gone
EXTD=
EXTT0=
EXTT1=
EXTT2=
EXTT3=
EXTT4=
EXTT5=
EXTT6=
EXTT7=
EXTT8=
EXTT9=
EXTT10=
EXTT11=
EXTT12=
EXTT13=
EXTT14=
EXTT15=
EXTT16=
EXTT17=
EXTT18=
PLAYORDER=
